<svg width="26" height="228" viewBox="0 0 26 228" fill="none" xmlns="http://www.w3.org/2000/svg">
<line x1="13.76" y1="8.05396" x2="13.76" y2="227.752" stroke="#17718E" stroke-width="1.01909" stroke-dasharray="2.04 2.04"/>
<path d="M17.9445 137.551C17.9445 134.943 15.8298 132.828 13.2213 132.828C10.6127 132.828 8.49805 134.943 8.49805 137.551C8.49805 140.16 10.6127 142.274 13.2213 142.274C15.8298 142.274 17.9445 140.16 17.9445 137.551Z" fill="#17718E"/>
<path d="M22.2659 137.544C22.2673 139.335 21.7374 141.086 20.7433 142.575C19.7493 144.065 18.3357 145.226 16.6816 145.912C15.0274 146.598 13.207 146.778 11.4506 146.429C9.69422 146.08 8.08083 145.217 6.8146 143.951C5.54837 142.685 4.68619 141.072 4.33717 139.315C3.98814 137.559 4.16795 135.738 4.85385 134.084C5.53974 132.43 6.70088 131.017 8.19036 130.023C9.67985 129.028 11.4307 128.499 13.2215 128.5C15.6191 128.503 17.9176 129.458 19.613 131.153C21.3084 132.848 22.2624 135.147 22.2659 137.544ZM5.00772 137.544C5.00639 139.169 5.48701 140.758 6.38874 142.11C7.29047 143.461 8.5728 144.515 10.0735 145.138C11.5743 145.76 13.226 145.924 14.8198 145.608C16.4135 145.292 17.8777 144.51 19.0271 143.361C20.1764 142.213 20.9594 140.749 21.2769 139.156C21.5943 137.563 21.4321 135.911 20.8106 134.409C20.1891 132.908 19.1363 131.625 17.7855 130.722C16.4346 129.819 14.8463 129.337 13.2215 129.337C11.0447 129.339 8.9576 130.204 7.41781 131.743C5.87801 133.281 5.01127 135.368 5.00772 137.544Z" fill="#17718E"/>
<path d="M25.5216 137.544L25.5216 137.966L25.0995 137.966C25.1188 137.414 25.1009 136.861 25.0459 136.311L25.4613 136.264C25.5046 136.69 25.5247 137.117 25.5216 137.544ZM25.4546 138.817C25.3988 139.388 25.3026 139.955 25.1665 140.512L24.7578 140.412C24.8884 139.874 24.9824 139.327 25.0392 138.777L25.4546 138.817ZM25.334 135.4L24.9253 135.474C24.8253 134.93 24.6911 134.393 24.5233 133.866L24.9186 133.739C25.0978 134.282 25.2367 134.837 25.334 135.4ZM24.9253 141.336C24.7498 141.882 24.5371 142.414 24.2888 142.931L23.907 142.743C24.1479 142.246 24.356 141.733 24.53 141.209L24.9253 141.336ZM24.6238 132.928L24.2352 133.089C24.0277 132.58 23.786 132.085 23.5117 131.608L23.8735 131.394C24.1602 131.893 24.411 132.413 24.6238 132.948L24.6238 132.928ZM23.8802 143.668C23.5967 144.164 23.2765 144.639 22.9221 145.088L22.5938 144.833C22.9305 144.407 23.2394 143.959 23.5184 143.493L23.8802 143.668ZM23.4179 130.644L23.0695 130.878C22.7601 130.409 22.4199 129.962 22.0512 129.538L22.3594 129.257C22.7443 129.701 23.0979 130.171 23.4179 130.664L23.4179 130.644ZM22.3728 145.751C21.9886 146.175 21.5768 146.574 21.14 146.944L20.872 146.622C21.2948 146.267 21.6912 145.882 22.0579 145.47L22.3728 145.751ZM21.7631 128.674L21.4683 128.975C21.0713 128.591 20.6482 128.236 20.2021 127.91L20.45 127.568C20.9138 127.912 21.3526 128.288 21.7631 128.694L21.7631 128.674ZM20.4634 147.473C20.0014 147.808 19.518 148.112 19.0162 148.384L18.8153 148.016C19.3023 147.754 19.7702 147.459 20.2155 147.131L20.4634 147.473ZM19.7398 127.093L19.512 127.448C19.0442 127.152 18.5562 126.891 18.0515 126.664L18.2257 126.282C18.7494 126.523 19.2554 126.8 19.7398 127.113L19.7398 127.093ZM18.2458 148.759C17.7228 148.995 17.1832 149.192 16.6312 149.349L16.5173 148.947C17.0482 148.794 17.5676 148.604 18.0716 148.377L18.2458 148.759ZM17.4284 125.981L17.281 126.376C16.761 126.187 16.2281 126.034 15.6865 125.92L15.7736 125.512C16.3358 125.628 16.8888 125.785 17.4284 125.981ZM15.8004 149.583C15.2389 149.698 14.6705 149.777 14.0987 149.818L14.0987 149.402C14.6505 149.361 15.1988 149.283 15.7401 149.168L15.8004 149.583ZM14.9295 125.364L14.8692 125.78C14.3233 125.701 13.7725 125.663 13.2211 125.666L13.1675 125.244L13.2211 125.244C13.7927 125.244 14.3636 125.284 14.9295 125.364ZM13.2345 149.737L13.2345 149.851C12.6676 149.851 12.1013 149.813 11.5395 149.737L11.5931 149.322C12.1349 149.395 12.6811 149.431 13.2278 149.429L13.2345 149.737ZM12.3434 125.693C11.7916 125.734 11.2432 125.812 10.702 125.927L10.6149 125.518C11.1735 125.398 11.7399 125.317 12.3099 125.277L12.3434 125.693ZM10.769 149.181L10.6886 149.59C10.1262 149.475 9.57313 149.318 9.03382 149.121L9.17451 148.726C9.69517 148.913 10.2279 149.066 10.769 149.181ZM9.89808 126.135C9.36812 126.29 8.8489 126.481 8.34376 126.704L8.16956 126.322C8.69065 126.087 9.22803 125.89 9.77749 125.733L9.89808 126.135ZM8.40405 148.418L8.23656 148.799C7.71285 148.569 7.2068 148.3 6.72246 147.996L6.94354 147.64C7.41076 147.935 7.89889 148.195 8.40405 148.418ZM7.60011 127.073C7.1131 127.334 6.64517 127.63 6.19987 127.957L5.9587 127.588C6.422 127.252 6.90774 126.948 7.41252 126.677L7.60011 127.073ZM6.26019 147.171L6.01229 147.513C5.53833 147.179 5.0904 146.81 4.67236 146.408L4.96046 146.106C5.36603 146.493 5.79809 146.851 6.25348 147.178L6.26019 147.171ZM5.55672 128.466C5.13335 128.823 4.73491 129.208 4.36419 129.618L4.05601 129.337C4.43613 128.911 4.84581 128.513 5.28203 128.145L5.55672 128.466ZM4.41109 145.51L4.10291 145.791C3.71654 145.371 3.36057 144.923 3.03768 144.451L3.38605 144.217C3.69518 144.673 4.03543 145.107 4.40438 145.517L4.41109 145.51ZM3.83491 130.255C3.497 130.692 3.18818 131.151 2.91038 131.628L2.5486 131.421C2.83129 130.924 3.15156 130.449 3.50664 130L3.83491 130.255ZM2.94387 143.507L2.58209 143.721C2.29375 143.226 2.04076 142.711 1.82503 142.18L2.21362 142.019C2.41934 142.534 2.66112 143.033 2.93717 143.513L2.94387 143.507ZM2.52179 132.365C2.27914 132.863 2.07315 133.378 1.90544 133.906L1.51015 133.772C1.68445 133.229 1.89714 132.698 2.14662 132.184L2.52179 132.365ZM1.93893 141.249L1.53695 141.383C1.35534 140.839 1.21647 140.281 1.12158 139.715L1.53026 139.648C1.63012 140.19 1.76665 140.725 1.93893 141.249ZM1.69105 134.71C1.55778 135.245 1.46373 135.789 1.40966 136.338L0.987576 136.298C1.04884 135.729 1.14731 135.165 1.28236 134.61L1.69105 134.71ZM1.41636 138.824L1.00099 138.871C0.935216 138.301 0.912815 137.728 0.933988 137.156L1.35607 137.156C1.33088 137.712 1.34656 138.27 1.40297 138.824L1.41636 138.824Z" fill="#17718E"/>
<path d="M17.9445 12.3842C17.9445 9.77562 15.8298 7.66096 13.2213 7.66096C10.6127 7.66096 8.49805 9.77563 8.49805 12.3842C8.49805 14.9928 10.6127 17.1074 13.2213 17.1074C15.8298 17.1074 17.9445 14.9928 17.9445 12.3842Z" fill="#17718E"/>
<path d="M22.265 12.3774C22.2663 14.1681 21.7364 15.919 20.7424 17.4085C19.7483 18.898 18.3348 20.0591 16.6806 20.745C15.0264 21.4309 13.206 21.6107 11.4496 21.2617C9.69324 20.9127 8.07986 20.0505 6.81362 18.7843C5.54739 17.518 4.68522 15.9047 4.33619 14.1483C3.98716 12.3919 4.16698 10.5714 4.85287 8.91729C5.53876 7.26313 6.6999 5.8496 8.18939 4.85556C9.67887 3.86151 11.4298 3.33161 13.2205 3.33293C15.6181 3.33647 17.9166 4.29052 19.612 5.98592C21.3074 7.68132 22.2614 9.97976 22.265 12.3774ZM5.00674 12.3774C5.00542 14.0022 5.48603 15.5909 6.38776 16.9425C7.28949 18.2942 8.57182 19.348 10.0726 19.9707C11.5733 20.5934 13.225 20.757 14.8188 20.4408C16.4125 20.1247 17.8767 19.3429 19.0261 18.1945C20.1755 17.046 20.9584 15.5825 21.2759 13.989C21.5934 12.3955 21.4311 10.7437 20.8096 9.24241C20.1881 7.74116 19.1354 6.45795 17.7845 5.55512C16.4336 4.65229 14.8453 4.17038 13.2205 4.17038C11.0438 4.17215 8.95663 5.03719 7.41683 6.57573C5.87703 8.11427 5.01029 10.2007 5.00674 12.3774Z" fill="#17718E"/>
<path d="M25.5216 12.3771L25.5216 12.7992L25.0995 12.7992C25.1188 12.247 25.1009 11.6942 25.0459 11.1444L25.4613 11.0975C25.5046 11.5226 25.5247 11.9498 25.5216 12.3771ZM25.4546 13.6501C25.3988 14.2212 25.3026 14.7876 25.1665 15.3451L24.7578 15.2446C24.8884 14.7066 24.9824 14.1605 25.0392 13.6099L25.4546 13.6501ZM25.334 10.2333L24.9253 10.307C24.8253 9.76305 24.6911 9.226 24.5233 8.69904L24.9186 8.57175C25.0978 9.11458 25.2367 9.66994 25.334 10.2333ZM24.9253 16.1691C24.7498 16.7145 24.5371 17.2473 24.2888 17.7636L23.907 17.576C24.1479 17.0787 24.356 16.5663 24.53 16.0418L24.9253 16.1691ZM24.6238 7.7611L24.2352 7.92189C24.0277 7.4126 23.786 6.91792 23.5117 6.44128L23.8735 6.22688C24.1602 6.72649 24.411 7.24591 24.6238 7.7812L24.6238 7.7611ZM23.8802 18.5006C23.5967 18.9973 23.2765 19.472 22.9221 19.9209L22.5938 19.6663C22.9317 19.2292 23.2406 18.7704 23.5184 18.2929L23.8802 18.5006ZM23.4179 5.47653L23.0695 5.71102C22.7537 5.26259 22.409 4.83515 22.0378 4.43139L22.3459 4.15C22.7332 4.57417 23.0914 5.02408 23.4179 5.49663L23.4179 5.47653ZM22.3728 20.5842C21.9886 21.0085 21.5768 21.4069 21.14 21.7767L20.872 21.4551C21.2948 21.1004 21.6912 20.7152 22.0579 20.3028L22.3728 20.5842ZM21.7631 3.50684L21.4683 3.80833C21.0713 3.42447 20.6482 3.06855 20.2021 2.7431L20.45 2.40141C20.9138 2.74503 21.3526 3.12115 21.7631 3.52694L21.7631 3.50684ZM20.4634 22.306C20.0014 22.6409 19.518 22.9453 19.0162 23.2171L18.8153 22.8486C19.3023 22.5872 19.7702 22.2917 20.2155 21.9643L20.4634 22.306ZM19.7398 1.92574L19.512 2.28082C19.0442 1.98548 18.5562 1.72354 18.0515 1.49696L18.2257 1.11507C18.7494 1.35584 19.2554 1.63346 19.7398 1.94584L19.7398 1.92574ZM18.2458 23.5923C17.7228 23.8283 17.1832 24.0254 16.6312 24.1819L16.5173 23.7799C17.0482 23.6271 17.5676 23.4368 18.0716 23.2104L18.2458 23.5923ZM17.4284 0.813604L17.281 1.20888C16.761 1.0196 16.2281 0.867364 15.6865 0.753311L15.7736 0.344623C16.3358 0.460891 16.8888 0.617631 17.4284 0.813604ZM15.8004 24.4163C15.2389 24.5315 14.6705 24.6098 14.0987 24.6508L14.0987 24.2355C14.6505 24.194 15.1988 24.1156 15.7401 24.001L15.8004 24.4163ZM14.9295 0.197231L14.8692 0.612604C14.3233 0.534461 13.7725 0.496406 13.2211 0.498722L13.1675 0.0766425L13.2211 0.0766425C13.7927 0.0765471 14.3636 0.11684 14.9295 0.197231ZM13.2345 24.5704L13.2345 24.6843C12.6676 24.6838 12.1013 24.6457 11.5395 24.5704L11.5931 24.1551C12.1349 24.2278 12.6811 24.2636 13.2278 24.2623L13.2345 24.5704ZM12.3434 0.525526C11.7916 0.566558 11.2432 0.644884 10.702 0.759996L10.6149 0.351329C11.1735 0.230699 11.7399 0.150087 12.3099 0.110132L12.3434 0.525526ZM10.769 24.0144L10.6886 24.423C10.1262 24.3077 9.57313 24.1509 9.03382 23.9541L9.17451 23.5588C9.69517 23.7463 10.2279 23.8985 10.769 24.0144ZM9.89808 0.967681C9.36812 1.12344 8.8489 1.31367 8.34376 1.53715L8.16956 1.15527C8.69065 0.920316 9.22803 0.723301 9.77749 0.565721L9.89808 0.967681ZM8.40405 23.2506L8.23656 23.6325C7.71285 23.4019 7.2068 23.1332 6.72246 22.8285L6.94354 22.4735C7.41076 22.7678 7.89889 23.0276 8.40405 23.2506ZM7.60011 1.90565C7.1131 2.16703 6.64517 2.46254 6.19987 2.78998L5.9587 2.42151C6.422 2.08505 6.90774 1.78063 7.41252 1.51037L7.60011 1.90565ZM6.26019 22.0045L6.01229 22.3462C5.53833 22.0121 5.0904 21.6426 4.67236 21.2407L4.96046 20.9392C5.36603 21.3262 5.79809 21.6844 6.25348 22.0112L6.26019 22.0045ZM5.55672 3.29916C5.13335 3.65557 4.73491 4.04059 4.36419 4.45149L4.05601 4.1701C4.43613 3.74424 4.84581 3.34574 5.28203 2.97757L5.55672 3.29916ZM4.41109 20.343L4.10291 20.6244C3.71654 20.2035 3.36057 19.7557 3.03768 19.2844L3.38605 19.05C3.69518 19.5061 4.03543 19.9404 4.40438 20.3497L4.41109 20.343ZM3.83491 5.08796C3.49822 5.51424 3.18941 5.96181 2.91038 6.42788L2.5486 6.22019C2.83129 5.72303 3.15156 5.2482 3.50664 4.79986L3.83491 5.08796ZM2.94387 18.3398L2.58209 18.5542C2.29375 18.059 2.04076 17.5441 1.82503 17.0133L2.21362 16.8525C2.41934 17.3669 2.66112 17.8661 2.93717 18.3465L2.94387 18.3398ZM2.52179 7.19834C2.27914 7.6963 2.07315 8.2113 1.90544 8.73924L1.51015 8.60525C1.68445 8.06158 1.89714 7.53098 2.14662 7.01744L2.52179 7.19834ZM1.93893 16.082L1.53695 16.216C1.35534 15.6716 1.21647 15.1138 1.12158 14.5478L1.53026 14.4808C1.63012 15.0232 1.76665 15.5581 1.93893 16.082ZM1.69105 9.5432C1.55778 10.0783 1.46373 10.6224 1.40966 11.1712L0.987576 11.131C1.04884 10.5624 1.14731 9.99842 1.28236 9.4427L1.69105 9.5432ZM1.41636 13.6568L1.00099 13.7037C0.935216 13.1345 0.912815 12.5611 0.933988 11.9886L1.35607 11.9886C1.33088 12.545 1.34656 13.1026 1.40297 13.6568L1.41636 13.6568Z" fill="#17718E"/>
</svg>
