<svg width="26" height="25" viewBox="0 0 26 25" fill="none" xmlns="http://www.w3.org/2000/svg">
<path d="M17.9445 12.3842C17.9445 9.77562 15.8298 7.66096 13.2213 7.66096C10.6127 7.66096 8.49805 9.77563 8.49805 12.3842C8.49805 14.9928 10.6127 17.1074 13.2213 17.1074C15.8298 17.1074 17.9445 14.9928 17.9445 12.3842Z" fill="#17718E"/>
<path d="M22.265 12.3774C22.2663 14.1681 21.7364 15.919 20.7424 17.4085C19.7483 18.898 18.3348 20.0591 16.6806 20.745C15.0264 21.4309 13.206 21.6107 11.4496 21.2617C9.69324 20.9127 8.07986 20.0505 6.81362 18.7843C5.54739 17.518 4.68522 15.9047 4.33619 14.1483C3.98716 12.3919 4.16698 10.5714 4.85287 8.91729C5.53876 7.26313 6.6999 5.8496 8.18939 4.85556C9.67887 3.86151 11.4298 3.33161 13.2205 3.33293C15.6181 3.33647 17.9166 4.29052 19.612 5.98592C21.3074 7.68132 22.2614 9.97976 22.265 12.3774ZM5.00674 12.3774C5.00542 14.0022 5.48603 15.5909 6.38776 16.9425C7.28949 18.2942 8.57182 19.348 10.0726 19.9707C11.5733 20.5934 13.225 20.757 14.8188 20.4408C16.4125 20.1247 17.8767 19.3429 19.0261 18.1945C20.1755 17.046 20.9584 15.5825 21.2759 13.989C21.5934 12.3955 21.4311 10.7437 20.8096 9.24241C20.1881 7.74116 19.1354 6.45795 17.7845 5.55512C16.4336 4.65229 14.8453 4.17038 13.2205 4.17038C11.0438 4.17215 8.95663 5.03719 7.41683 6.57573C5.87703 8.11427 5.01029 10.2007 5.00674 12.3774Z" fill="#17718E"/>
<path d="M25.5216 12.3771L25.5216 12.7992L25.0995 12.7992C25.1188 12.247 25.1009 11.6942 25.0459 11.1444L25.4613 11.0975C25.5046 11.5226 25.5247 11.9498 25.5216 12.3771ZM25.4546 13.6501C25.3988 14.2212 25.3026 14.7876 25.1665 15.3451L24.7578 15.2446C24.8884 14.7066 24.9824 14.1605 25.0392 13.6099L25.4546 13.6501ZM25.334 10.2333L24.9253 10.307C24.8253 9.76305 24.6911 9.226 24.5233 8.69904L24.9186 8.57175C25.0978 9.11458 25.2367 9.66994 25.334 10.2333ZM24.9253 16.1691C24.7498 16.7145 24.5371 17.2473 24.2888 17.7636L23.907 17.576C24.1479 17.0787 24.356 16.5663 24.53 16.0418L24.9253 16.1691ZM24.6238 7.7611L24.2352 7.92189C24.0277 7.4126 23.786 6.91792 23.5117 6.44128L23.8735 6.22688C24.1602 6.72649 24.411 7.24591 24.6238 7.7812L24.6238 7.7611ZM23.8802 18.5006C23.5967 18.9973 23.2765 19.472 22.9221 19.9209L22.5938 19.6663C22.9317 19.2292 23.2406 18.7704 23.5184 18.2929L23.8802 18.5006ZM23.4179 5.47653L23.0695 5.71102C22.7537 5.26259 22.409 4.83515 22.0378 4.43139L22.3459 4.15C22.7332 4.57417 23.0914 5.02408 23.4179 5.49663L23.4179 5.47653ZM22.3728 20.5842C21.9886 21.0085 21.5768 21.4069 21.14 21.7767L20.872 21.4551C21.2948 21.1004 21.6912 20.7152 22.0579 20.3028L22.3728 20.5842ZM21.7631 3.50684L21.4683 3.80833C21.0713 3.42447 20.6482 3.06855 20.2021 2.7431L20.45 2.40141C20.9138 2.74503 21.3526 3.12115 21.7631 3.52694L21.7631 3.50684ZM20.4634 22.306C20.0014 22.6409 19.518 22.9453 19.0162 23.2171L18.8153 22.8486C19.3023 22.5872 19.7702 22.2917 20.2155 21.9643L20.4634 22.306ZM19.7398 1.92574L19.512 2.28082C19.0442 1.98548 18.5562 1.72354 18.0515 1.49696L18.2257 1.11507C18.7494 1.35584 19.2554 1.63346 19.7398 1.94584L19.7398 1.92574ZM18.2458 23.5923C17.7228 23.8283 17.1832 24.0254 16.6312 24.1819L16.5173 23.7799C17.0482 23.6271 17.5676 23.4368 18.0716 23.2104L18.2458 23.5923ZM17.4284 0.813604L17.281 1.20888C16.761 1.0196 16.2281 0.867364 15.6865 0.753311L15.7736 0.344623C16.3358 0.460891 16.8888 0.617631 17.4284 0.813604ZM15.8004 24.4163C15.2389 24.5315 14.6705 24.6098 14.0987 24.6508L14.0987 24.2355C14.6505 24.194 15.1988 24.1156 15.7401 24.001L15.8004 24.4163ZM14.9295 0.197231L14.8692 0.612604C14.3233 0.534461 13.7725 0.496406 13.2211 0.498722L13.1675 0.0766425L13.2211 0.0766425C13.7927 0.0765471 14.3636 0.11684 14.9295 0.197231ZM13.2345 24.5704L13.2345 24.6843C12.6676 24.6838 12.1013 24.6457 11.5395 24.5704L11.5931 24.1551C12.1349 24.2278 12.6811 24.2636 13.2278 24.2623L13.2345 24.5704ZM12.3434 0.525526C11.7916 0.566558 11.2432 0.644884 10.702 0.759996L10.6149 0.351329C11.1735 0.230699 11.7399 0.150087 12.3099 0.110132L12.3434 0.525526ZM10.769 24.0144L10.6886 24.423C10.1262 24.3077 9.57313 24.1509 9.03382 23.9541L9.17451 23.5588C9.69517 23.7463 10.2279 23.8985 10.769 24.0144ZM9.89808 0.967681C9.36812 1.12344 8.8489 1.31367 8.34376 1.53715L8.16956 1.15527C8.69065 0.920316 9.22803 0.723301 9.77749 0.565721L9.89808 0.967681ZM8.40405 23.2506L8.23656 23.6325C7.71285 23.4019 7.2068 23.1332 6.72246 22.8285L6.94354 22.4735C7.41076 22.7678 7.89889 23.0276 8.40405 23.2506ZM7.60011 1.90565C7.1131 2.16703 6.64517 2.46254 6.19987 2.78998L5.9587 2.42151C6.422 2.08505 6.90774 1.78063 7.41252 1.51037L7.60011 1.90565ZM6.26019 22.0045L6.01229 22.3462C5.53833 22.0121 5.0904 21.6426 4.67236 21.2407L4.96046 20.9392C5.36603 21.3262 5.79809 21.6844 6.25348 22.0112L6.26019 22.0045ZM5.55672 3.29916C5.13335 3.65557 4.73491 4.04059 4.36419 4.45149L4.05601 4.1701C4.43613 3.74424 4.84581 3.34574 5.28203 2.97757L5.55672 3.29916ZM4.41109 20.343L4.10291 20.6244C3.71654 20.2035 3.36057 19.7557 3.03768 19.2844L3.38605 19.05C3.69518 19.5061 4.03543 19.9404 4.40438 20.3497L4.41109 20.343ZM3.83491 5.08796C3.49822 5.51424 3.18941 5.96181 2.91038 6.42788L2.5486 6.22019C2.83129 5.72303 3.15156 5.2482 3.50664 4.79986L3.83491 5.08796ZM2.94387 18.3398L2.58209 18.5542C2.29375 18.059 2.04076 17.5441 1.82503 17.0133L2.21362 16.8525C2.41934 17.3669 2.66112 17.8661 2.93717 18.3465L2.94387 18.3398ZM2.52179 7.19834C2.27914 7.6963 2.07315 8.2113 1.90544 8.73924L1.51015 8.60525C1.68445 8.06158 1.89714 7.53098 2.14662 7.01744L2.52179 7.19834ZM1.93893 16.082L1.53695 16.216C1.35534 15.6716 1.21647 15.1138 1.12158 14.5478L1.53026 14.4808C1.63012 15.0232 1.76665 15.5581 1.93893 16.082ZM1.69105 9.5432C1.55778 10.0783 1.46373 10.6224 1.40966 11.1712L0.987576 11.131C1.04884 10.5624 1.14731 9.99842 1.28236 9.4427L1.69105 9.5432ZM1.41636 13.6568L1.00099 13.7037C0.935216 13.1345 0.912815 12.5611 0.933988 11.9886L1.35607 11.9886C1.33088 12.545 1.34656 13.1026 1.40297 13.6568L1.41636 13.6568Z" fill="#17718E"/>
</svg>
