<svg width="6" height="148" viewBox="0 0 6 148" fill="none" xmlns="http://www.w3.org/2000/svg">
<path d="M3 147.047C4.13044 147.047 5.04685 146.13 5.04685 145C5.04685 143.87 4.13044 142.953 3 142.953C1.86956 142.953 0.953153 143.87 0.953153 145C0.953153 146.13 1.86956 147.047 3 147.047ZM2.99999 5.04684C4.13044 5.04684 5.04684 4.13045 5.04684 3C5.04684 1.86955 4.13044 0.953155 2.99999 0.953156C1.86955 0.953156 0.953147 1.86955 0.953147 3C0.953147 4.13045 1.86955 5.04684 2.99999 5.04684ZM3.38378 145L3.38378 143.132L2.61622 143.132L2.61622 145L3.38378 145ZM3.38378 139.395L3.38378 135.658L2.61622 135.658L2.61622 139.395L3.38378 139.395ZM3.38378 131.921L3.38378 128.184L2.61622 128.184L2.61622 131.921L3.38378 131.921ZM3.38378 124.447L3.38378 120.711L2.61622 120.711L2.61622 124.447L3.38378 124.447ZM3.38378 116.974L3.38378 113.237L2.61621 113.237L2.61621 116.974L3.38378 116.974ZM3.38378 109.5L3.38378 105.763L2.61621 105.763L2.61621 109.5L3.38378 109.5ZM3.38378 102.026L3.38378 98.2895L2.61621 98.2895L2.61621 102.026L3.38378 102.026ZM3.38378 94.5526L3.38378 90.8158L2.61621 90.8158L2.61621 94.5526L3.38378 94.5526ZM3.38378 87.0789L3.38378 83.3421L2.61621 83.3421L2.61621 87.0789L3.38378 87.0789ZM3.38378 79.6053L3.38378 75.8684L2.61621 75.8684L2.61621 79.6053L3.38378 79.6053ZM3.38378 72.1316L3.38378 68.3947L2.61621 68.3947L2.61621 72.1316L3.38378 72.1316ZM3.38378 64.6579L3.38378 60.9211L2.61621 60.9211L2.61621 64.6579L3.38378 64.6579ZM3.38378 57.1842L3.38378 53.4474L2.61621 53.4474L2.61621 57.1842L3.38378 57.1842ZM3.38378 49.7105L3.38378 45.9737L2.61621 45.9737L2.61621 49.7105L3.38378 49.7105ZM3.38378 42.2369L3.38378 38.5L2.61621 38.5L2.61621 42.2369L3.38378 42.2369ZM3.38378 34.7632L3.38378 31.0263L2.61621 31.0263L2.61621 34.7632L3.38378 34.7632ZM3.38378 27.2895L3.38378 23.5527L2.61621 23.5527L2.61621 27.2895L3.38378 27.2895ZM3.38378 19.8158L3.38378 16.079L2.61621 16.079L2.61621 19.8158L3.38378 19.8158ZM3.38378 12.3421L3.38378 8.60529L2.61621 8.60529L2.61621 12.3421L3.38378 12.3421ZM3.38378 4.86844L3.38378 3L2.61621 3L2.61621 4.86844L3.38378 4.86844Z" fill="#17718E" fill-opacity="0.5"/>
</svg>
