<svg width="20" height="20" viewBox="0 0 20 20" fill="none" xmlns="http://www.w3.org/2000/svg">
<g clip-path="url(#clip0_2021_34)">
<path d="M10.0003 1.66699C8.35215 1.66699 6.74099 2.15573 5.37058 3.07141C4.00017 3.98709 2.93206 5.28858 2.30133 6.8113C1.6706 8.33401 1.50558 10.0096 1.82712 11.6261C2.14866 13.2426 2.94234 14.7274 4.10777 15.8929C5.27321 17.0583 6.75807 17.852 8.37458 18.1735C9.99109 18.4951 11.6666 18.3301 13.1894 17.6993C14.7121 17.0686 16.0136 16.0005 16.9292 14.6301C17.8449 13.2597 18.3337 11.6485 18.3337 10.0003C18.3337 8.90598 18.1181 7.82234 17.6993 6.8113C17.2805 5.80025 16.6667 4.88159 15.8929 4.10777C15.1191 3.33395 14.2004 2.72012 13.1894 2.30133C12.1783 1.88254 11.0947 1.66699 10.0003 1.66699ZM10.0003 3.33366C11.7126 3.33298 13.3585 3.9961 14.592 5.18366C13.3187 5.93049 11.9694 6.53949 10.567 7.00033C9.86907 5.79768 9.06889 4.65736 8.17533 3.59199C8.76863 3.42116 9.38292 3.3342 10.0003 3.33366ZM6.57533 4.29199C7.4484 5.29075 8.23197 6.36432 8.917 7.50033C7.28125 7.9065 5.60242 8.11355 3.917 8.11699H3.617C4.08966 6.51669 5.14528 5.15183 6.57533 4.29199ZM5.00033 14.4253C3.91596 13.2076 3.32206 11.6308 3.33366 10.0003C3.33366 9.91699 3.33366 9.83366 3.33366 9.75866H3.90033C5.87314 9.74102 7.83482 9.46078 9.73366 8.92533C10.0003 9.43366 10.2503 9.95866 10.492 10.5003C9.19324 10.9582 7.98367 11.6377 6.917 12.5087L6.667 12.7087C6.07293 13.2422 5.51607 13.8158 5.00033 14.4253ZM10.0003 16.667C8.67207 16.6699 7.37383 16.272 6.27533 15.5253C6.68103 15.06 7.1152 14.6203 7.57533 14.2087L7.842 13.9837C8.82797 13.1544 9.95781 12.5132 11.1753 12.092C11.6764 13.447 12.0666 14.8405 12.342 16.2587C11.5918 16.5326 10.7989 16.6708 10.0003 16.667ZM13.8587 15.4253C13.586 14.1641 13.2297 12.9225 12.792 11.7087H13.0753C13.1082 11.7005 13.1425 11.7005 13.1753 11.7087H13.267H13.3503H13.7503C14.6273 11.7112 15.4977 11.8605 16.3253 12.1503C15.8706 13.4756 15.0069 14.6224 13.8587 15.4253ZM13.7503 10.0003C13.5753 10.0003 13.4003 10.0003 13.2337 10.0003C13.1258 9.98673 13.0166 9.98673 12.9087 10.0003C12.6822 10.0142 12.4567 10.0421 12.2337 10.0837H12.1503C11.9087 9.52533 11.6587 8.98366 11.3837 8.41699C12.8758 7.90454 14.309 7.23407 15.6587 6.41699C16.3282 7.49147 16.6779 8.73437 16.667 10.0003C16.667 10.142 16.667 10.2837 16.667 10.4253C15.7226 10.1338 14.7387 9.99047 13.7503 10.0003Z" fill="#17718E"/>
</g>
<defs>
<clipPath id="clip0_2021_34">
<rect width="20" height="20" fill="white"/>
</clipPath>
</defs>
</svg>
