<svg width="20" height="20" viewBox="0 0 20 20" fill="none" xmlns="http://www.w3.org/2000/svg">
<g clip-path="url(#clip0_2021_20)">
<path d="M14.4503 4.55033C14.2525 4.55033 14.0592 4.60897 13.8948 4.71886C13.7303 4.82874 13.6021 4.98492 13.5264 5.16764C13.4508 5.35037 13.431 5.55143 13.4695 5.74542C13.5081 5.9394 13.6034 6.11758 13.7432 6.25743C13.8831 6.39728 14.0613 6.49253 14.2552 6.53111C14.4492 6.5697 14.6503 6.54989 14.833 6.47421C15.0157 6.39852 15.1719 6.27034 15.2818 6.1059C15.3917 5.94145 15.4503 5.74811 15.4503 5.55033C15.4503 5.28511 15.345 5.03076 15.1574 4.84322C14.9699 4.65568 14.7155 4.55033 14.4503 4.55033ZM18.2837 6.56699C18.2675 5.87557 18.138 5.19149 17.9003 4.54199C17.6884 3.98627 17.3586 3.48306 16.9337 3.06699C16.521 2.63985 16.0166 2.31214 15.4587 2.10866C14.8109 1.86379 14.126 1.73133 13.4337 1.71699C12.5503 1.66699 12.267 1.66699 10.0003 1.66699C7.73366 1.66699 7.45033 1.66699 6.56699 1.71699C5.87462 1.73133 5.18978 1.86379 4.54199 2.10866C3.98506 2.3142 3.4811 2.64163 3.06699 3.06699C2.63985 3.47964 2.31214 3.98403 2.10866 4.54199C1.86379 5.18978 1.73133 5.87462 1.71699 6.56699C1.66699 7.45033 1.66699 7.73366 1.66699 10.0003C1.66699 12.267 1.66699 12.5503 1.71699 13.4337C1.73133 14.126 1.86379 14.8109 2.10866 15.4587C2.31214 16.0166 2.63985 16.521 3.06699 16.9337C3.4811 17.359 3.98506 17.6865 4.54199 17.892C5.18978 18.1369 5.87462 18.2693 6.56699 18.2837C7.45033 18.3337 7.73366 18.3337 10.0003 18.3337C12.267 18.3337 12.5503 18.3337 13.4337 18.2837C14.126 18.2693 14.8109 18.1369 15.4587 17.892C16.0166 17.6885 16.521 17.3608 16.9337 16.9337C17.3605 16.5191 17.6906 16.0155 17.9003 15.4587C18.138 14.8092 18.2675 14.1251 18.2837 13.4337C18.2837 12.5503 18.3337 12.267 18.3337 10.0003C18.3337 7.73366 18.3337 7.45033 18.2837 6.56699ZM16.7837 13.3337C16.7776 13.8626 16.6818 14.3867 16.5003 14.8837C16.3673 15.2463 16.1536 15.574 15.8753 15.842C15.605 16.1174 15.278 16.3307 14.917 16.467C14.4201 16.6485 13.896 16.7443 13.367 16.7503C12.5337 16.792 12.2253 16.8003 10.0337 16.8003C7.84199 16.8003 7.53366 16.8003 6.70033 16.7503C6.15107 16.7606 5.60415 16.676 5.08366 16.5003C4.73848 16.3571 4.42646 16.1443 4.16699 15.8753C3.8904 15.6076 3.67936 15.2797 3.55033 14.917C3.34687 14.413 3.23403 13.8769 3.21699 13.3337C3.21699 12.5003 3.16699 12.192 3.16699 10.0003C3.16699 7.80866 3.16699 7.50033 3.21699 6.66699C3.22073 6.1262 3.31945 5.59028 3.50866 5.08366C3.65536 4.73192 3.88055 4.41837 4.16699 4.16699C4.42017 3.88047 4.73307 3.65291 5.08366 3.50033C5.59162 3.31703 6.12699 3.22123 6.66699 3.21699C7.50033 3.21699 7.80866 3.16699 10.0003 3.16699C12.192 3.16699 12.5003 3.16699 13.3337 3.21699C13.8626 3.22306 14.3867 3.31886 14.8837 3.50033C15.2624 3.64087 15.6022 3.86936 15.8753 4.16699C16.1484 4.42297 16.3618 4.73594 16.5003 5.08366C16.6855 5.5911 16.7814 6.12681 16.7837 6.66699C16.8253 7.50033 16.8337 7.80866 16.8337 10.0003C16.8337 12.192 16.8253 12.5003 16.7837 13.3337ZM10.0003 5.72533C9.15517 5.72697 8.32946 5.9791 7.62754 6.44984C6.92561 6.92058 6.37897 7.58882 6.05669 8.37012C5.7344 9.15142 5.65093 10.0107 5.81682 10.8394C5.98271 11.6682 6.39052 12.4291 6.98872 13.0261C7.58692 13.6232 8.34867 14.0295 9.17771 14.1938C10.0067 14.3581 10.8659 14.2729 11.6465 13.9491C12.4272 13.6253 13.0944 13.0774 13.5638 12.3745C14.0331 11.6717 14.2837 10.8455 14.2837 10.0003C14.2848 9.43791 14.1747 8.88083 13.9597 8.36112C13.7447 7.84141 13.4291 7.36933 13.031 6.97203C12.633 6.57474 12.1603 6.26006 11.6402 6.0461C11.12 5.83214 10.5627 5.72313 10.0003 5.72533ZM10.0003 12.7753C9.45148 12.7753 8.91496 12.6126 8.45862 12.3077C8.00227 12.0027 7.64659 11.5693 7.43656 11.0623C7.22653 10.5552 7.17157 9.99725 7.27865 9.45895C7.38572 8.92065 7.65001 8.42619 8.0381 8.0381C8.42619 7.65001 8.92065 7.38572 9.45895 7.27865C9.99725 7.17157 10.5552 7.22653 11.0623 7.43656C11.5693 7.64659 12.0027 8.00227 12.3077 8.45862C12.6126 8.91496 12.7753 9.45148 12.7753 10.0003C12.7753 10.3647 12.7035 10.7256 12.5641 11.0623C12.4246 11.399 12.2202 11.7049 11.9625 11.9625C11.7049 12.2202 11.399 12.4246 11.0623 12.5641C10.7256 12.7035 10.3647 12.7753 10.0003 12.7753Z" fill="#17718E"/>
</g>
<defs>
<clipPath id="clip0_2021_20">
<rect width="20" height="20" fill="white"/>
</clipPath>
</defs>
</svg>
